<svg width="960" height="960" viewBox="0 0 960 960" fill="none" xmlns="http://www.w3.org/2000/svg">
<path d="M663.087 453.84L663.078 453.813C664.898 453.059 667.02 453.281 669.017 453.289C670.821 453.417 672.613 452.905 674.077 451.843C676.749 451.825 679.083 453.875 680.228 456.29C681.22 458.787 681.726 461.45 681.72 464.137C685.828 533.152 686.16 602.34 682.714 671.392L682.945 672.67C678.764 673.418 674.538 673.884 670.295 674.064C666.283 674.233 662.111 674.224 657.974 674.393C654.505 674.489 651.049 674.842 647.633 675.449L647.588 675.209C648.855 610.876 650.127 546.546 651.405 482.219C651.512 476.804 651.627 471.301 653.234 466.134C654.841 460.967 658.161 456.077 663.087 453.84Z" fill="url(#paint0_linear_248_1701)"/>
<path d="M674.676 466.658C678.989 527.765 678.27 589.123 672.525 650.112" stroke="white" stroke-width="3" stroke-linecap="round" stroke-linejoin="round"/>
<path d="M291.538 421.839C296.216 426.819 296.429 434.382 296.376 441.208C295.852 501.517 295.335 561.82 294.823 622.117L294.788 623.2C285.858 622.925 276.963 621.945 268.188 620.271L268.41 619.179C268.57 571.857 268.732 524.534 268.897 477.212C268.96 459.379 269.075 441.212 274.57 424.245L274.792 423.925C277.02 425.354 280.064 425.292 282.799 425.115C285.311 424.946 288.01 424.706 289.9 423.046C290.32 422.672 290.688 422.242 290.991 421.768L291.538 421.839Z" fill="#171717"/>
<path d="M292.587 435.87L288.887 601.278" stroke="white" stroke-width="3" stroke-linecap="round" stroke-linejoin="round"/>
<path d="M331.147 625.561C333.865 626.44 336.431 627.734 338.754 629.396C343.511 632.979 347.063 637.927 348.936 643.581C351.954 651.837 352.575 661.53 352.815 670.451C353.054 679.905 353.115 690.025 348.815 698.271C348.26 699.355 347.625 700.397 346.915 701.387C338.535 713.149 322.068 715.359 307.635 714.862C281.368 713.948 255.608 707.562 230.3 700.473C205.658 693.566 180.75 685.737 159.863 670.957C136.375 654.34 119.234 629.494 110.037 602.233C100.84 574.972 99.3373 545.433 103.637 516.989C107.064 494.336 114.254 471.949 127.17 453.032C140.086 434.115 159.099 418.865 181.238 412.998C185.996 411.737 191.198 410.725 194.538 407.104C196.499 404.973 197.565 402.168 199.402 399.931C200.811 398.253 202.556 396.891 204.524 395.931C225.205 403.883 246.909 408.866 268.987 410.731L270.061 410.536C270.416 413.03 270.883 415.5 271.461 417.948C271.762 419.857 272.575 421.648 273.813 423.132C274.112 423.43 274.439 423.698 274.79 423.932L274.568 424.252C269.068 441.215 268.958 459.386 268.895 477.219C268.737 524.542 268.574 571.864 268.407 619.186L268.185 620.278C276.961 621.952 285.855 622.932 294.785 623.207C298.425 623.34 302.055 623.376 305.685 623.34C314.201 623.253 323.255 622.943 331.147 625.561Z" fill="url(#paint1_linear_248_1701)"/>
<path d="M216.172 485.239C191.3 505.721 180.318 541.59 189.459 572.485C198.6 603.38 227.333 627.499 259.345 631.148" stroke="white" stroke-width="3" stroke-linecap="round" stroke-linejoin="round"/>
<path d="M648.573 338.125C651.232 338.99 653.815 340.074 656.295 341.365C660.363 343.291 664.593 344.854 668.936 346.034C676.193 348.087 683.722 349.015 691.261 348.786C698.354 348.466 705.109 344.934 711.687 342.626C715.52 341.167 719.578 340.389 723.679 340.326C726.079 340.325 728.455 340.808 730.665 341.747C735.894 344.028 739.551 349.088 741.184 354.556C742.817 360.024 742.667 365.865 741.93 371.52C740.51 382.5 736.648 393.703 728.393 401.088C724.919 404.103 720.948 406.494 716.658 408.154C712.774 409.674 708.772 410.874 704.692 411.74C696.843 413.458 688.865 414.524 680.84 414.927C676.197 415.167 671.546 415.211 666.903 415.087C665.057 415.034 663.184 414.945 661.303 414.787C657.592 414.509 653.922 413.831 650.358 412.763C645.947 411.514 641.951 409.108 638.783 405.795C633.066 399.572 631.583 390.642 630.749 382.236C629.533 369.95 629.249 357.036 634.406 345.814C635.835 342.714 637.859 339.627 640.993 338.278C643.424 337.344 646.106 337.29 648.573 338.125V338.125ZM715.948 364.815C715.948 358.024 707.168 352.515 696.33 352.515C685.492 352.515 676.712 358.015 676.712 364.815C676.712 371.615 685.491 377.109 696.33 377.109C707.169 377.109 715.948 371.605 715.948 364.815Z" fill="#171717"/>
<path d="M649.878 231.645C659.048 236.879 667.107 243.854 673.605 252.177C671.268 248.856 669.649 245.084 668.853 241.103C668.057 237.121 668.1 233.017 668.98 229.053C669.58 226.39 671.768 223.23 674.289 224.268C675.233 224.78 675.994 225.575 676.464 226.541C682.384 236.083 688.301 245.623 694.217 255.16C696.374 252.71 696.791 249.239 698.117 246.265C699.443 243.291 702.751 240.522 705.707 241.889C707.571 242.759 708.441 244.933 708.725 246.975C709.009 249.017 708.876 251.138 709.541 253.082C711.157 257.782 716.641 259.793 721.534 260.69C726.427 261.587 731.867 262.208 735.204 265.89C737.566 268.482 738.364 272.09 739.083 275.521C742.616 292.511 746.155 309.501 749.7 326.491C746.228 323.944 742.755 321.402 739.279 318.866C739.456 321.866 741.862 324.183 743.362 326.793C744.862 329.403 744.942 333.584 742.102 334.578C740.477 335.155 738.728 334.339 737.202 333.54C733.518 331.622 729.837 329.704 726.159 327.787L725.91 327.752C727.232 319.219 727.921 310.6 727.97 301.965C728.014 296.426 727.695 290.54 724.552 285.978C720.62 280.297 713.314 278.131 706.497 277.065C691.744 274.757 676.597 275.778 661.891 273.204C659.938 272.858 657.985 272.441 656.032 271.926C643.321 268.597 631.204 261.611 625.632 249.92C625.357 249.508 625.188 249.036 625.138 248.544C625.089 248.052 625.161 247.555 625.348 247.097C625.934 246.148 627.283 246.103 628.402 246.197C635.741 246.831 642.931 248.642 649.697 251.558C646.293 247.141 644.045 241.945 643.155 236.441C642.827 234.355 642.942 231.741 644.806 230.741C646.389 229.905 648.315 230.757 649.878 231.645Z" fill="#171717"/>
<path d="M663.565 435.953C662.785 435.907 662.043 435.604 661.453 435.092C660.405 434.092 660.405 432.447 660.476 431C660.734 425.727 660.997 420.454 661.265 415.181L661.302 414.781C663.184 414.941 665.056 415.03 666.901 415.081C671.544 415.205 676.195 415.161 680.838 414.921L680.891 415.8C680.882 420.709 680.876 425.618 680.873 430.526C680.864 432.009 680.802 433.66 679.755 434.716C678.808 435.501 677.602 435.903 676.373 435.844C676.106 435.861 675.849 435.87 675.592 435.87C672.121 435.915 668.641 435.97 665.17 436.012C664.635 436.033 664.098 436.013 663.565 435.953V435.953Z" fill="url(#paint2_linear_248_1701)"/>
<path d="M675.594 435.873C675.851 435.873 676.108 435.864 676.375 435.847L676.41 436.477C676.153 440.151 675.898 443.826 675.647 447.502C675.661 448.712 675.378 449.907 674.821 450.982C674.619 451.306 674.368 451.596 674.076 451.843C672.612 452.905 670.82 453.417 669.016 453.289C667.016 453.281 664.897 453.059 663.077 453.813C662.918 453.875 662.767 453.955 662.607 454.035C662.326 447.99 662.648 441.933 663.566 435.953C664.099 436.013 664.636 436.034 665.172 436.015C668.648 435.971 672.123 435.918 675.594 435.873Z" fill="url(#paint3_linear_248_1701)"/>
<path d="M520.037 355.547C525.137 362.125 525.737 371.09 525.398 379.408C523.756 419.708 504.875 458.243 477.224 487.608C457.713 508.344 433.224 525.208 405.491 531.655C377.758 538.102 346.646 533.031 324.907 514.647L323.434 514.78C320.229 479.273 316.326 443.837 311.725 408.472C311.219 404.548 310.698 400.627 310.163 396.71L310.278 396.692C316.057 413.692 324.65 430.113 337.743 442.381C350.836 454.649 368.909 462.371 386.743 460.312C406.272 458.066 423.12 444.494 433.643 427.894C444.166 411.294 449.243 391.872 453.225 372.627C454.699 365.535 456.27 357.963 461.356 352.814C464.8 349.314 469.31 347.461 474.156 346.467C478.244 345.708 482.391 345.31 486.548 345.278C494.856 345.065 503.999 345.464 511.323 348.82C514.735 350.314 517.728 352.624 520.037 355.547V355.547Z" fill="url(#paint4_linear_248_1701)"/>
<path d="M336.909 252.674C341.32 257.494 338.577 265.883 333.154 269.531C327.731 273.179 320.797 273.431 314.254 273.552L312.807 273.579C295.116 273.916 277.422 274.256 259.724 274.6C254.06 274.706 247.811 275.052 243.772 279.02C239.236 283.477 239.298 290.676 239.547 297.031C240.159 312.548 240.067 328.068 239.272 343.59L239.085 343.581C234.043 343.528 232.872 350.913 227.963 352.081C224.678 352.862 221.243 350.235 220.373 346.981C219.503 343.727 220.764 340.181 222.859 337.536C224.954 334.891 227.794 332.956 230.59 331.065C226.871 330.355 223.524 333.133 220.178 334.891C216.832 336.649 211.541 336.746 210.413 333.133C209.552 330.355 211.905 327.733 213.795 325.517C217.865 320.693 220.437 314.784 221.195 308.517C222.553 297.137 217.928 284.772 223.13 274.563C227.249 266.485 236.53 262.287 245.508 261.097C254.486 259.907 263.608 261.115 272.662 260.797C281.716 260.479 291.313 258.285 297.544 251.716C300.811 248.281 303.358 243.559 307.944 242.369C309.618 241.925 311.39 242.03 313 242.669C314.61 243.307 315.973 244.446 316.887 245.917C317.802 247.388 318.219 249.114 318.079 250.84C317.939 252.567 317.249 254.203 316.11 255.507C315.338 256.128 314.583 256.767 313.829 257.407C314.708 256.933 315.484 256.287 316.11 255.507C318.653 253.277 321.58 251.526 324.748 250.339C328.893 248.972 333.961 249.461 336.909 252.674Z" fill="#171717"/>
<path d="M323.434 514.779C326.762 551.645 329.333 588.573 331.148 625.561C323.256 622.943 314.202 623.253 305.689 623.333C302.058 623.369 298.428 623.333 294.789 623.2L294.825 622.117C295.34 561.817 295.857 501.514 296.378 441.208C296.431 434.382 296.218 426.819 291.54 421.839L290.999 421.768C292.313 419.744 292.526 417.019 292.623 414.533C292.668 413.344 292.712 412.217 292.756 411.125H292.819C298.996 411.175 305.146 410.31 311.069 408.559L311.726 408.471C316.323 443.827 320.226 479.263 323.434 514.779Z" fill="url(#paint5_linear_248_1701)"/>
<path d="M292.755 411.125C293.004 404.804 293.182 399.851 293.288 392.954L293.474 391.747C298.978 392.652 304.437 393.761 309.852 395.076L309.952 395.067C310.023 395.617 310.094 396.158 310.165 396.709C310.698 400.632 311.219 404.553 311.727 408.471L311.07 408.559C305.147 410.31 298.997 411.175 292.82 411.125H292.755Z" fill="url(#paint6_linear_248_1701)"/>
<path d="M293.474 391.747L293.288 392.954C293.182 399.854 293.004 404.804 292.755 411.125C292.711 412.217 292.667 413.344 292.622 414.533C292.522 417.019 292.312 419.744 290.998 421.768C290.695 422.242 290.327 422.672 289.906 423.046C288.015 424.706 285.317 424.946 282.806 425.115C280.071 425.292 277.027 425.354 274.799 423.925C274.448 423.691 274.121 423.423 273.822 423.125C272.584 421.641 271.771 419.85 271.47 417.941C270.894 415.491 270.427 413.02 270.07 410.529C269.056 403.559 268.892 396.492 269.582 389.482L269.6 389.127C274.509 389.402 279.4 389.837 284.273 390.432C287.351 390.806 290.418 391.244 293.474 391.747Z" fill="#171717"/>
<path d="M270.066 410.53L268.992 410.725C246.914 408.86 225.21 403.877 204.529 395.925C207.777 394.428 211.216 393.385 214.748 392.825C221.566 391.502 228.431 390.508 235.342 389.842C246.726 388.736 258.178 388.498 269.598 389.132L269.58 389.487C268.89 396.495 269.053 403.561 270.066 410.53V410.53Z" fill="url(#paint7_linear_248_1701)"/>
<path d="M268.282 344.86L267.936 345.56C261.625 347.708 257.63 354.232 259.308 360.686L259.175 361.281C258.203 361.063 257.267 360.707 256.396 360.224C254.465 359.048 252.848 357.423 251.682 355.486C250.517 353.549 249.837 351.359 249.703 349.102C249.499 344.56 250.789 340.076 253.378 336.337C254.914 334.002 257.63 331.694 260.213 332.768C262.583 333.754 263.036 336.816 263.924 339.231C264.788 341.497 266.305 343.455 268.282 344.86V344.86Z" fill="#171717"/>
<path d="M274.238 332.947C275.65 335.122 279.316 334.385 280.763 332.247C282.21 330.109 282.112 327.302 281.952 324.719C281.384 315.497 280.818 306.277 280.252 297.059C280.101 294.707 279.977 292.259 280.936 290.108C282.258 287.17 285.409 285.395 288.587 284.889C291.765 284.383 295.005 284.924 298.187 285.466" stroke="#171717" stroke-width="3" stroke-linecap="round" stroke-linejoin="round"/>
<path d="M269.978 286.761C269.299 285.551 268.293 284.556 267.075 283.892C265.856 283.228 264.475 282.921 263.09 283.006C261.705 283.091 260.372 283.566 259.245 284.375C258.117 285.183 257.241 286.294 256.716 287.578" stroke="#171717" stroke-width="3" stroke-linecap="round" stroke-linejoin="round"/>
<path d="M266.4 304.674L265.548 297.99" stroke="#171717" stroke-width="3" stroke-linecap="round" stroke-linejoin="round"/>
<path d="M294.273 307.195V298.425" stroke="#171717" stroke-width="3" stroke-linecap="round" stroke-linejoin="round"/>
<path d="M278.535 347.105C276.764 347.476 274.935 347.468 273.168 347.081C271.4 346.694 269.735 345.937 268.282 344.86C266.305 343.456 264.789 341.497 263.924 339.232C263.036 336.817 262.583 333.755 260.213 332.769C257.63 331.695 254.913 334.003 253.378 336.338C250.789 340.077 249.499 344.561 249.703 349.103C249.837 351.36 250.517 353.55 251.682 355.487C252.848 357.424 254.465 359.049 256.396 360.225C257.267 360.708 258.203 361.064 259.175 361.282C260.876 361.72 262.662 361.716 264.361 361.27C266.061 360.825 267.618 359.951 268.886 358.734" stroke="#171717" stroke-width="3" stroke-linecap="round" stroke-linejoin="round"/>
<path d="M259.308 360.687C257.63 354.233 261.625 347.709 267.936 345.561" stroke="#171717" stroke-width="3" stroke-linecap="round" stroke-linejoin="round"/>
<path d="M284.448 389.025C284.235 383.956 284.022 378.816 285.131 373.872C286.24 368.928 288.842 364.099 293.138 361.4C298.083 358.311 304.962 358.1 308.468 353.437C310.403 350.872 310.821 347.508 311.14 344.303C313.469 321.152 314.032 297.857 312.827 274.62" stroke="#171717" stroke-width="3" stroke-linecap="round" stroke-linejoin="round"/>
<path d="M316.11 255.506C317.249 254.202 317.939 252.566 318.079 250.839C318.219 249.113 317.802 247.387 316.887 245.916C315.973 244.445 314.61 243.306 313 242.668C311.39 242.029 309.618 241.924 307.944 242.368C303.354 243.558 300.807 248.28 297.544 251.715C291.313 258.284 281.717 260.477 272.662 260.796C263.607 261.115 254.492 259.909 245.508 261.096C236.524 262.283 227.249 266.484 223.13 274.562C217.93 284.771 222.553 297.136 221.195 308.516C220.437 314.783 217.865 320.692 213.795 325.516C211.905 327.735 209.552 330.354 210.413 333.132C211.541 336.745 216.822 336.656 220.178 334.89C223.534 333.124 226.871 330.354 230.59 331.064C227.79 332.955 224.945 334.881 222.859 337.535C220.773 340.189 219.512 343.713 220.373 346.98C221.234 350.247 224.678 352.865 227.963 352.08C232.872 350.908 234.043 343.523 239.085 343.58" stroke="#171717" stroke-width="3" stroke-linecap="round" stroke-linejoin="round"/>
<path d="M316.11 255.506C315.338 256.127 314.583 256.766 313.829 257.406C314.709 256.932 315.485 256.285 316.11 255.506V255.506Z" stroke="#171717" stroke-width="3" stroke-linecap="round" stroke-linejoin="round"/>
<path d="M235.127 387.77C237.142 373.114 238.524 358.387 239.273 343.59C240.063 328.082 240.155 312.562 239.548 297.031C239.299 290.676 239.237 283.477 243.773 279.02C247.812 275.052 254.061 274.706 259.725 274.6C277.425 274.254 295.119 273.913 312.808 273.579L314.255 273.552C320.797 273.428 327.739 273.179 333.155 269.531C338.571 265.883 341.321 257.494 336.91 252.674C333.962 249.461 328.894 248.974 324.748 250.339C321.581 251.525 318.654 253.276 316.111 255.506" stroke="#171717" stroke-width="3" stroke-linecap="round" stroke-linejoin="round"/>
<path d="M231.239 486.107C223.294 490.446 216.298 496.331 210.663 503.415C205.027 510.5 200.866 518.64 198.424 527.357C195.983 536.074 195.31 545.191 196.446 554.172C197.582 563.153 200.504 571.816 205.039 579.651C214.653 596.251 231.119 608.189 249.086 614.918C255.299 617.222 261.691 619.012 268.197 620.271C276.973 621.945 285.867 622.925 294.797 623.2C298.437 623.333 302.067 623.369 305.697 623.333C314.21 623.253 323.264 622.943 331.156 625.561C333.874 626.44 336.44 627.734 338.763 629.396C343.52 632.979 347.072 637.927 348.945 643.581C351.963 651.837 352.584 661.53 352.824 670.451C353.063 679.905 353.124 690.025 348.824 698.271C348.269 699.355 347.634 700.397 346.924 701.387C338.544 713.149 322.077 715.359 307.644 714.862C281.377 713.948 255.617 707.562 230.309 700.473C205.667 693.566 180.759 685.737 159.872 670.957C136.384 654.34 119.243 629.494 110.046 602.233C100.849 574.972 99.3461 545.433 103.646 516.989C107.073 494.336 114.263 471.949 127.179 453.032C140.095 434.115 159.108 418.865 181.247 412.998C186.005 411.737 191.207 410.725 194.547 407.104C196.508 404.973 197.574 402.168 199.411 399.931C200.819 398.253 202.564 396.891 204.533 395.931C207.78 394.432 211.217 393.387 214.748 392.825C221.566 391.502 228.431 390.508 235.342 389.842C246.726 388.736 258.178 388.498 269.598 389.132C274.507 389.406 279.398 389.841 284.271 390.437C287.351 390.81 290.418 391.248 293.471 391.751C298.975 392.655 304.434 393.765 309.849 395.08" stroke="#171717" stroke-width="3" stroke-linecap="round" stroke-linejoin="round"/>
<path d="M309.923 394.889C309.932 394.951 309.941 395.004 309.95 395.067C310.021 395.617 310.092 396.158 310.163 396.709C310.696 400.632 311.217 404.553 311.725 408.471C316.325 443.827 320.228 479.263 323.434 514.779C326.762 551.645 329.333 588.573 331.148 625.561C331.156 625.686 331.156 625.81 331.165 625.934" stroke="#171717" stroke-width="3" stroke-linecap="round" stroke-linejoin="round"/>
<path d="M310.278 396.691C316.057 413.691 324.65 430.112 337.743 442.38C350.836 454.648 368.909 462.37 386.743 460.311C406.272 458.065 423.12 444.493 433.643 427.893C444.166 411.293 449.243 391.871 453.225 372.626C454.699 365.534 456.27 357.962 461.356 352.813C464.8 349.313 469.31 347.46 474.156 346.466C478.244 345.707 482.391 345.309 486.548 345.277C494.856 345.064 503.999 345.463 511.323 348.819C514.733 350.314 517.724 352.624 520.031 355.547C525.131 362.125 525.731 371.09 525.392 379.408C523.75 419.708 504.869 458.243 477.218 487.608C457.707 508.344 433.218 525.208 405.485 531.655C377.752 538.102 346.64 533.031 324.901 514.647" stroke="#171717" stroke-width="3" stroke-linecap="round" stroke-linejoin="round"/>
<path d="M473.948 345.481C461.565 336.338 440.483 316.019 444.433 310.506C446.712 307.325 457.903 313.282 463.688 317.002C469.472 320.721 474.247 325.814 477.588 331.825C472.117 308.379 459.748 260.313 469.27 260.313C478.946 259.008 484.618 299.54 489.403 320.013C487.185 300.624 482.748 261.657 489.421 261.657C499.07 260.308 496.975 301.328 500.162 324.807C502.248 308.825 504.046 263.269 510.397 261.791C516.748 260.313 519.717 319.623 511.329 348.819" stroke="#171717" stroke-width="3" stroke-linecap="round" stroke-linejoin="round"/>
<path d="M589.418 617.199C570.349 644.158 546.815 667.663 519.833 686.699C519.633 686.85 519.424 686.992 519.22 687.134C511.497 692.54 502.177 697.804 493.12 695.167C486.356 693.197 481.589 687.276 477.675 681.417C476.547 679.717 475.447 677.991 474.399 676.224C469.091 667.276 465.141 657.405 465.638 647.124C466.056 640.337 468.168 633.763 471.781 628.003C476.079 621.199 481.496 615.17 487.803 610.17C489.889 608.457 492.028 606.85 494.194 605.332C508.513 595.301 524.775 587.614 536.643 574.769C549.461 560.895 555.879 542.369 560.797 524.127C565.715 505.885 569.567 487.093 578.515 470.449C587.463 453.805 602.687 439.249 621.408 436.7C628.917 435.679 636.908 436.558 643.768 433.344C650.628 430.13 655.894 417.934 650.355 412.759" stroke="#171717" stroke-width="3" stroke-linecap="round" stroke-linejoin="round"/>
<path d="M716.658 408.151C713.169 412.119 715.575 420.251 719.694 423.579C723.813 426.907 729.263 427.884 734.411 429.118C780.766 440.187 815.945 479.21 836.974 521.978C850.591 549.678 859.645 580.565 856.387 611.261C851.736 655.077 821.839 693.62 784.033 716.247C746.555 738.669 702.153 747.047 658.479 748.265C658.079 748.283 657.689 748.292 657.29 748.301C647.96 748.54 637.601 748.079 630.917 741.563C628.222 738.864 626.292 735.498 625.324 731.808C623.567 725.683 623.709 718.652 624.055 712.163C624.472 704.245 625.155 695.715 628.609 688.817C629.839 686.29 631.51 684.003 633.544 682.062C637.486 678.352 642.35 676.443 647.632 675.449C651.048 674.842 654.504 674.489 657.973 674.393C662.11 674.224 666.282 674.233 670.294 674.064C674.537 673.885 678.763 673.419 682.944 672.67C696.121 670.398 708.704 665.486 719.935 658.228C731.166 650.971 740.815 641.518 748.301 630.438C755.787 619.358 760.956 606.878 763.498 593.75C766.039 580.622 765.901 567.115 763.092 554.041" stroke="#171717" stroke-width="3" stroke-linecap="round" stroke-linejoin="round"/>
<path d="M566.888 714.294C550.972 716.078 536.414 718.466 536.974 722.833C537.999 730.825 574.798 726.109 594.566 721.866C579.608 725.186 564.648 728.506 549.685 731.825C547.67 732.115 545.751 732.876 544.085 734.045C542.532 735.345 541.679 737.737 542.745 739.459C543.745 741.084 545.905 741.466 547.804 741.659C573.014 744.259 600.967 740.247 624.904 731.921" stroke="#171717" stroke-width="3" stroke-linecap="round" stroke-linejoin="round"/>
<path d="M566.888 714.294C575.629 714.278 584.345 713.359 592.897 711.551C585.485 712.439 575.961 713.264 566.888 714.294Z" stroke="#171717" stroke-width="3" stroke-linecap="round" stroke-linejoin="round"/>
<path d="M593.315 695.892C571.691 696.034 537.098 702.843 538.793 711.231C538.793 715.825 557.442 714.323 566.893 714.294" stroke="#171717" stroke-width="3" stroke-linecap="round" stroke-linejoin="round"/>
<path d="M593.315 695.892C594.973 696.011 596.635 696.04 598.295 695.981C596.741 695.901 595.072 695.874 593.315 695.892Z" stroke="#171717" stroke-width="3" stroke-linecap="round" stroke-linejoin="round"/>
<path d="M628.609 688.817C614.734 687.61 601.659 685.293 587.793 684.086C586.63 683.986 585.459 683.886 584.287 683.873C582.663 683.819 581.042 684.056 579.502 684.573C576.884 685.532 574.602 688.026 574.851 690.814C574.851 694.325 586.883 695.446 593.315 695.891" stroke="#171717" stroke-width="3" stroke-linecap="round" stroke-linejoin="round"/>
<path d="M610.411 485.947C601.137 529.302 594.161 573.117 589.511 617.208C587.203 639.064 585.466 661.04 584.301 683.136" stroke="#171717" stroke-width="3" stroke-linecap="round" stroke-linejoin="round"/>
<path d="M693.258 344.931C689.191 344.114 685.123 343.294 681.053 342.472C682.421 325.421 685.393 308.537 689.93 292.043C698.602 293.081 707.274 294.116 715.948 295.149" stroke="#171717" stroke-width="3" stroke-linecap="round" stroke-linejoin="round"/>
<path d="M682.429 292.06C676.145 290.424 669.565 290.287 663.219 291.66" stroke="#171717" stroke-width="3" stroke-linecap="round" stroke-linejoin="round"/>
<path d="M696.33 377.109C707.165 377.109 715.948 371.605 715.948 364.815C715.948 358.026 707.165 352.521 696.33 352.521C685.495 352.521 676.712 358.026 676.712 364.815C676.712 371.605 685.495 377.109 696.33 377.109Z" stroke="#171717" stroke-width="3" stroke-linecap="round" stroke-linejoin="round"/>
<path d="M723.679 340.325C719.578 340.388 715.52 341.166 711.687 342.625C705.109 344.933 698.354 348.465 691.261 348.785C683.722 349.014 676.193 348.086 668.936 346.033C664.593 344.853 660.363 343.29 656.295 341.364C653.815 340.073 651.232 338.99 648.573 338.124C646.106 337.289 643.424 337.342 640.992 338.275C637.858 339.624 635.834 342.713 634.405 345.811C629.248 357.032 629.532 369.947 630.748 382.233C631.583 390.639 633.065 399.569 638.782 405.792C641.95 409.105 645.946 411.511 650.357 412.76C653.921 413.828 657.591 414.507 661.302 414.784C663.184 414.944 665.057 415.033 666.902 415.084C671.545 415.208 676.196 415.164 680.839 414.924C688.864 414.521 696.842 413.455 704.691 411.737C708.771 410.871 712.773 409.672 716.657 408.151C720.947 406.491 724.918 404.101 728.392 401.085C736.647 393.7 740.509 382.497 741.929 371.517C742.666 365.862 742.829 360.017 741.183 354.553C739.537 349.089 735.893 344.025 730.664 341.744C728.455 340.806 726.079 340.323 723.679 340.325V340.325Z" stroke="#171717" stroke-width="3" stroke-linecap="round" stroke-linejoin="round"/>
<path d="M723.688 339.693C724.558 335.672 725.304 331.704 725.907 327.754C727.229 319.221 727.918 310.602 727.967 301.967C728.011 296.428 727.692 290.542 724.549 285.98C720.617 280.299 713.311 278.133 706.494 277.067C691.741 274.759 676.594 275.78 661.888 273.206C659.935 272.86 657.982 272.443 656.029 271.928C643.318 268.599 631.201 261.613 625.629 249.922C625.354 249.51 625.185 249.038 625.135 248.546C625.086 248.054 625.158 247.557 625.345 247.099C625.931 246.15 627.28 246.105 628.399 246.199C635.738 246.834 642.928 248.644 649.694 251.56C646.29 247.143 644.042 241.947 643.152 236.443C642.824 234.357 642.939 231.743 644.803 230.743C646.392 229.9 648.318 230.752 649.881 231.643C659.051 236.877 667.11 243.852 673.608 252.175C671.271 248.854 669.652 245.083 668.856 241.101C668.06 237.119 668.103 233.015 668.983 229.051C669.583 226.388 671.771 223.228 674.292 224.266C675.236 224.778 675.997 225.573 676.467 226.539C682.387 236.081 688.304 245.621 694.22 255.158C696.377 252.708 696.794 249.237 698.12 246.263C699.446 243.289 702.754 240.52 705.71 241.887C707.574 242.757 708.444 244.931 708.728 246.973C709.012 249.015 708.879 251.136 709.544 253.08C711.16 257.78 716.644 259.791 721.537 260.688C726.43 261.585 731.87 262.206 735.207 265.888C737.569 268.48 738.367 272.088 739.086 275.519C742.619 292.509 746.158 309.499 749.703 326.489C746.231 323.942 742.758 321.4 739.282 318.864C739.459 321.864 741.865 324.181 743.365 326.791C744.865 329.401 744.945 333.582 742.105 334.576C740.48 335.153 738.731 334.337 737.205 333.538C733.521 331.62 729.84 329.702 726.162 327.785" stroke="#171717" stroke-width="3" stroke-linecap="round" stroke-linejoin="round"/>
<path d="M655.976 272.132C652.096 293.947 649.624 315.989 648.576 338.122C648.576 338.184 648.567 338.237 648.567 338.3" stroke="#171717" stroke-width="3" stroke-linecap="round" stroke-linejoin="round"/>
<path d="M687 362.025C689.362 363.969 691.776 365.958 694.652 366.987C697.528 368.016 701.017 367.911 703.342 365.931C704.564 364.751 705.546 363.346 706.236 361.794" stroke="#171717" stroke-width="3" stroke-linecap="round" stroke-linejoin="round"/>
<path d="M349.648 643.288C362.635 635.588 375.825 627.816 390.392 623.848C404.418 620.031 420.112 620.12 432.814 627.062C433.303 627.328 433.791 627.612 434.27 627.896C436.125 629.006 438.007 630.396 438.726 632.441C439.996 636.041 436.951 639.968 433.338 641.185C429.725 642.402 425.784 641.726 421.994 641.291C410.435 639.956 398.726 640.959 387.561 644.238" stroke="#171717" stroke-width="3" stroke-linecap="round" stroke-linejoin="round"/>
<path d="M406.156 641.193C393.234 648.249 383.635 660.139 379.464 674.259C378.701 676.922 378.186 679.976 379.695 682.302C381.142 684.53 384.142 685.364 386.77 684.912C389.378 684.304 391.797 683.068 393.818 681.312C398.007 678.058 401.691 674.2 404.748 669.865C407.225 666.359 409.568 662.302 413.58 660.765C416.67 659.584 420.114 660.165 423.416 660.365C431.155 660.808 438.866 659.104 445.697 655.439C447.898 654.277 449.984 652.909 451.928 651.355" stroke="#171717" stroke-width="3" stroke-linecap="round" stroke-linejoin="round"/>
<path d="M433 626.698C445.534 623.401 458.744 623.713 471.108 627.598" stroke="#171717" stroke-width="3" stroke-linecap="round" stroke-linejoin="round"/>
<path d="M445.96 655.925C447.984 655.863 450.079 654.925 451.97 655.641C452.94 655.953 453.798 656.539 454.442 657.328C455.086 658.117 455.488 659.076 455.6 660.088C455.68 663.195 452.289 665.112 449.369 666.16C437.548 670.396 425.047 672.415 412.494 672.116" stroke="#171717" stroke-width="3" stroke-linecap="round" stroke-linejoin="round"/>
<path d="M449.697 666.652C451.428 666.874 453.203 666.217 454.739 667.052C455.525 667.434 456.194 668.022 456.672 668.754C457.15 669.486 457.421 670.334 457.455 671.207C457.334 672.363 456.867 673.455 456.115 674.34C454.652 676.244 452.834 677.845 450.762 679.054C448.407 680.441 445.917 681.586 443.332 682.471C431.777 686.648 419.55 688.656 407.266 688.392C407.612 688.383 407.966 688.383 408.313 688.375" stroke="#171717" stroke-width="3" stroke-linecap="round" stroke-linejoin="round"/>
<path d="M412.748 698.866C419.796 698.12 439.405 695.555 445.848 692.608C448.484 691.401 451.183 689.891 452.629 687.379C453.348 686.089 453.617 684.596 453.393 683.136C453.312 682.429 453.067 681.751 452.679 681.155C452.291 680.559 451.769 680.061 451.156 679.701" stroke="#171717" stroke-width="3" stroke-linecap="round" stroke-linejoin="round"/>
<path d="M453.408 683.136C460.756 682.499 467.86 680.182 474.17 676.363" stroke="#171717" stroke-width="3" stroke-linecap="round" stroke-linejoin="round"/>
<path d="M349.38 698.555C352.523 699.274 367.09 698.573 370.303 698.209" stroke="#171717" stroke-width="3" stroke-linecap="round" stroke-linejoin="round"/>
<path d="M371.936 697.437C374.126 694.079 377.248 691.433 380.92 689.825C382.349 689.213 384.142 688.813 385.349 689.799C386.468 690.713 386.521 692.382 386.441 693.829C386.37 695.009 386.264 696.19 386.095 697.362C385.897 698.951 385.534 700.516 385.012 702.031C384.809 702.619 384.575 703.197 384.312 703.762C383.632 705.329 382.634 706.738 381.381 707.899C380.128 709.061 378.648 709.949 377.033 710.508C375.752 710.892 374.399 710.966 373.084 710.724C371.768 710.482 370.53 709.93 369.47 709.115C367.242 707.304 368.742 704.694 369.558 702.288C370.139 700.575 370.939 698.945 371.936 697.437Z" stroke="#171717" stroke-width="3" stroke-linecap="round" stroke-linejoin="round"/>
<path d="M385.012 702.035C384.63 704.387 383.458 708.4 384.754 710.299C385.211 710.862 385.859 711.238 386.574 711.356C389.956 712.137 394.412 710.256 396.534 707.512C396.913 707.019 397.26 706.503 397.573 705.967C398.912 703.444 399.838 700.723 400.315 697.907C400.342 697.783 400.369 697.659 400.387 697.526C400.581 696.382 400.5 695.208 400.151 694.101C399.802 692.994 399.195 691.987 398.38 691.161C394.315 687.521 388.199 693.469 386.326 696.895C386.246 697.046 386.166 697.206 386.095 697.366C385.54 698.735 385.196 700.18 385.074 701.653C385.056 701.777 385.039 701.902 385.012 702.035Z" stroke="#171717" stroke-width="3" stroke-linecap="round" stroke-linejoin="round"/>
<path d="M397.803 705.381C397.723 705.581 397.644 705.772 397.573 705.967C396.996 707.25 396.679 708.635 396.641 710.042C396.622 710.854 396.848 711.652 397.29 712.333C397.731 713.014 398.368 713.546 399.117 713.859C400.537 714.312 402.073 713.637 403.342 712.847C407.394 710.295 410.473 706.457 412.086 701.947C412.46 700.96 412.679 699.921 412.734 698.867C412.803 697.926 412.606 696.985 412.166 696.151C411.566 695.223 410.694 694.504 409.668 694.093C408.642 693.683 407.514 693.601 406.44 693.86C404.293 694.445 402.436 695.797 401.221 697.66" stroke="#171717" stroke-width="3" stroke-linecap="round" stroke-linejoin="round"/>
<path d="M269.578 389.483C268.888 396.493 269.051 403.56 270.066 410.53C270.42 413.024 270.887 415.495 271.466 417.942C271.766 419.851 272.579 421.643 273.818 423.126C274.116 423.425 274.443 423.693 274.795 423.926C277.023 425.355 280.067 425.293 282.802 425.116C285.314 424.947 288.012 424.707 289.902 423.047C290.322 422.673 290.69 422.243 290.994 421.769C292.308 419.745 292.521 417.02 292.618 414.534C292.663 413.345 292.707 412.218 292.751 411.126C293 404.805 293.178 399.852 293.284 392.955" stroke="#171717" stroke-width="3" stroke-linecap="round" stroke-linejoin="round"/>
<path d="M274.576 424.245C269.076 441.208 268.966 459.379 268.903 477.212C268.744 524.535 268.582 571.858 268.415 619.179" stroke="#171717" stroke-width="3" stroke-linecap="round" stroke-linejoin="round"/>
<path d="M291.539 421.839C296.217 426.819 296.43 434.382 296.377 441.208C295.853 501.517 295.335 561.82 294.824 622.117" stroke="#171717" stroke-width="3" stroke-linecap="round" stroke-linejoin="round"/>
<path d="M661.265 415.181C660.999 420.454 660.736 425.727 660.476 431C660.405 432.447 660.405 434.089 661.453 435.092C662.043 435.604 662.785 435.907 663.565 435.953C664.099 436.013 664.635 436.034 665.172 436.015C668.643 435.971 672.122 435.915 675.593 435.873C675.85 435.873 676.108 435.864 676.375 435.847C677.603 435.906 678.809 435.503 679.756 434.719C680.803 433.663 680.866 432.012 680.875 430.529C680.875 425.621 680.881 420.712 680.893 415.803" stroke="#171717" stroke-width="3" stroke-linecap="round" stroke-linejoin="round"/>
<path d="M663.574 435.864C663.567 435.893 663.565 435.923 663.566 435.953C662.648 441.934 662.326 447.991 662.607 454.035C662.767 453.955 662.918 453.875 663.077 453.813C664.897 453.059 667.019 453.281 669.016 453.289C670.82 453.418 672.612 452.906 674.076 451.843C674.368 451.597 674.619 451.306 674.821 450.982C675.378 449.908 675.661 448.712 675.647 447.502C675.904 443.827 676.158 440.152 676.41 436.477" stroke="#171717" stroke-width="3" stroke-linecap="round" stroke-linejoin="round"/>
<path d="M663.104 453.831C663.095 453.831 663.095 453.84 663.086 453.84C658.16 456.077 654.849 460.968 653.233 466.134C651.617 471.3 651.511 476.804 651.404 482.219C650.137 546.552 648.865 610.882 647.587 675.209" stroke="#171717" stroke-width="3" stroke-linecap="round" stroke-linejoin="round"/>
<path d="M674.058 451.843H674.076C676.748 451.825 679.082 453.875 680.227 456.29C681.218 458.787 681.725 461.45 681.719 464.137C685.827 533.152 686.159 602.34 682.713 671.392" stroke="#171717" stroke-width="3" stroke-linecap="round" stroke-linejoin="round"/>
<path d="M703.348 496.555C707.503 497.203 711.672 497.791 715.856 498.321C719.956 498.854 724.067 499.321 728.177 499.733C735.659 500.487 743.151 501.064 750.653 501.464" stroke="#171717" stroke-width="3" stroke-linecap="round" stroke-linejoin="round"/>
<path d="M702.548 496.625C701.782 508.931 702.362 521.284 704.279 533.464C704.971 537.884 705.974 542.545 709.072 545.776C711.744 548.563 715.667 549.886 719.529 550.152C723.396 550.265 727.263 549.902 731.042 549.069C736.59 548.084 742.813 546.655 745.698 541.808C747.18 539.322 747.491 536.34 747.766 533.464C748.786 522.962 749.804 512.458 750.82 501.951" stroke="#171717" stroke-width="3" stroke-linecap="round" stroke-linejoin="round"/>
<path d="M728.224 499.254C728.606 495.871 728.952 492.259 727.407 489.223C725.862 486.187 721.664 484.261 718.93 486.293C717.03 487.714 716.596 490.341 716.356 492.702C716.161 494.575 715.994 496.448 715.856 498.321C715.085 508.508 715.082 518.738 715.848 528.925" stroke="#171717" stroke-width="3" stroke-linecap="round" stroke-linejoin="round"/>
<path d="M488.125 610.568C487.956 639.09 499.451 665.729 519.407 686.101" stroke="#171717" stroke-width="3" stroke-linecap="round" stroke-linejoin="round"/>
<path d="M657.991 674.765C654.153 699.128 654.318 723.954 658.479 748.265C658.48 748.309 658.486 748.354 658.497 748.398" stroke="#171717" stroke-width="3" stroke-linecap="round" stroke-linejoin="round"/>
<path d="M203.615 395.581C203.915 395.697 204.227 395.821 204.529 395.928C225.21 403.881 246.913 408.864 268.992 410.728" stroke="#171717" stroke-width="3" stroke-linecap="round" stroke-linejoin="round"/>
<path d="M292.818 411.125C298.995 411.175 305.145 410.31 311.068 408.559" stroke="#171717" stroke-width="3" stroke-linecap="round" stroke-linejoin="round"/>
<path d="M677.023 308.811C676.56 307.951 675.878 307.226 675.048 306.711C674.217 306.195 673.266 305.907 672.289 305.873C671.312 305.84 670.343 306.063 669.479 306.521C668.615 306.979 667.886 307.655 667.365 308.482" stroke="#171717" stroke-width="3" stroke-linecap="round" stroke-linejoin="round"/>
<path d="M694.128 311.003C694.743 309.982 695.618 309.143 696.663 308.571C697.708 307.999 698.886 307.714 700.078 307.746C701.269 307.777 702.43 308.124 703.443 308.751C704.457 309.378 705.286 310.262 705.846 311.314" stroke="#171717" stroke-width="3" stroke-linecap="round" stroke-linejoin="round"/>
<path d="M854.376 425.216C846.18 445.632 845.584 468.312 852.695 489.131C859.807 509.95 874.154 527.525 893.127 538.661C902.292 544.04 913.097 548.52 917.727 558.084C921.981 566.871 919.619 577.407 915.898 586.433C913.244 592.871 909.76 599.255 904.169 603.407C898.578 607.559 890.449 608.931 884.629 605.107C878.809 601.283 877.343 591.587 882.839 587.307C883.865 586.456 885.105 585.904 886.424 585.713C887.742 585.521 889.088 585.697 890.313 586.221C892.686 587.413 893.943 590.697 892.513 592.939" stroke="#171717" stroke-width="3" stroke-linecap="round" stroke-linejoin="round"/>
<path d="M801.403 726.649C810.141 726.154 818.605 723.417 825.978 718.702C833.351 713.986 839.384 707.45 843.497 699.725" stroke="#171717" stroke-width="3" stroke-linecap="round" stroke-linejoin="round"/>
<path d="M369.604 736.758C391.91 748.028 420.542 745.425 440.45 730.316" stroke="#171717" stroke-width="3" stroke-linecap="round" stroke-linejoin="round"/>
<path d="M394.438 757.687L413.332 754.487" stroke="#171717" stroke-width="3" stroke-linecap="round" stroke-linejoin="round"/>
<path d="M383.186 610.112C388.306 607.031 394.154 605.369 400.129 605.296C406.105 605.224 411.992 606.743 417.186 609.698" stroke="#171717" stroke-width="3" stroke-linecap="round" stroke-linejoin="round"/>
<path d="M129.353 686.319C106.74 682.692 88.0266 662.074 86.6016 639.219" stroke="#171717" stroke-width="3" stroke-linecap="round" stroke-linejoin="round"/>
<path d="M57.0042 548.957C52.0006 545.152 47.8401 540.351 44.7852 534.857" stroke="#171717" stroke-width="3" stroke-linecap="round" stroke-linejoin="round"/>
<path d="M40 552.641L53.162 537.606" stroke="#171717" stroke-width="3" stroke-linecap="round" stroke-linejoin="round"/>
<path d="M61.2202 483.352C64.7442 475.582 78.2732 477.173 81.1132 485.218C83.9532 493.263 76.6602 502.525 68.1552 503.195C59.6502 503.865 51.6442 497.476 48.6152 489.5C45.5862 481.524 46.8042 472.455 49.9592 464.525C54.3545 453.563 62.161 444.307 72.2242 438.125C89.1982 427.763 113.016 425.472 122.34 407.908C125.764 401.458 126.355 393.142 122.36 387.028C118.365 380.914 109.229 378.246 103.285 382.488C98.7312 385.738 97.1022 392.188 98.7522 397.529C100.402 402.87 104.869 407.056 110.006 409.272C121.039 414.029 135.259 409.42 141.406 399.096C147.778 388.389 145.378 374.934 145.036 362.48C144.694 350.026 148.591 335.08 160.485 331.368" stroke="#171717" stroke-width="3" stroke-linecap="round" stroke-linejoin="round"/>
<path d="M204.548 277.325C204.371 272.972 205.63 268.682 208.13 265.115C210.631 261.547 214.235 258.901 218.387 257.582" stroke="#171717" stroke-width="3" stroke-linecap="round" stroke-linejoin="round"/>
<path d="M316.455 220.946C318.548 214.62 322.418 209.031 327.603 204.846" stroke="#171717" stroke-width="3" stroke-linecap="round" stroke-linejoin="round"/>
<path d="M328.814 217.9L309.95 202" stroke="#171717" stroke-width="3" stroke-linecap="round" stroke-linejoin="round"/>
<path d="M357.686 244.316L368.001 236.764" stroke="#171717" stroke-width="3" stroke-linecap="round" stroke-linejoin="round"/>
<path d="M367.169 246.31L359.648 234.092" stroke="#171717" stroke-width="3" stroke-linecap="round" stroke-linejoin="round"/>
<path d="M537.148 285.755C538.234 280.32 537.794 274.69 535.879 269.488C533.964 264.286 530.647 259.716 526.296 256.282" stroke="#171717" stroke-width="3" stroke-linecap="round" stroke-linejoin="round"/>
<path d="M549.828 272.453L544.181 262.118" stroke="#171717" stroke-width="3" stroke-linecap="round" stroke-linejoin="round"/>
<path d="M734.668 221.873L731.848 207.773" stroke="#171717" stroke-width="3" stroke-linecap="round" stroke-linejoin="round"/>
<path d="M725.268 217.17L737.487 213.41" stroke="#171717" stroke-width="3" stroke-linecap="round" stroke-linejoin="round"/>
<path d="M762.817 253.777L788.202 230.289" stroke="#171717" stroke-width="3" stroke-linecap="round" stroke-linejoin="round"/>
<path d="M783.582 251.925L766.653 228.436" stroke="#171717" stroke-width="3" stroke-linecap="round" stroke-linejoin="round"/>
<path d="M837.876 355.477L825.614 339.532" stroke="#171717" stroke-width="3" stroke-linecap="round" stroke-linejoin="round"/>
<path d="M823.018 354.398C829.675 351.02 835.221 345.801 838.997 339.36" stroke="#171717" stroke-width="3" stroke-linecap="round" stroke-linejoin="round"/>
<path d="M635.548 484.325L628.442 475.138" stroke="#171717" stroke-width="3" stroke-linecap="round" stroke-linejoin="round"/>
<path d="M688.24 430.594C695.795 428.615 703.178 426.03 710.318 422.866" stroke="#171717" stroke-width="3" stroke-linecap="round" stroke-linejoin="round"/>
<path d="M656.029 431.261L653.105 429.59" stroke="#171717" stroke-width="3" stroke-linecap="round" stroke-linejoin="round"/>
<path d="M709.034 464.625L718.854 455.225" stroke="#171717" stroke-width="3" stroke-linecap="round" stroke-linejoin="round"/>
<path d="M764.748 469.898L759.148 461.379" stroke="#171717" stroke-width="3" stroke-linecap="round" stroke-linejoin="round"/>
<path d="M796.99 519.144L806.49 508.19" stroke="#171717" stroke-width="3" stroke-linecap="round" stroke-linejoin="round"/>
<path d="M784.679 557.84L778.453 545.288" stroke="#171717" stroke-width="3" stroke-linecap="round" stroke-linejoin="round"/>
<path d="M712.377 596.231L720.242 585.318" stroke="#171717" stroke-width="3" stroke-linecap="round" stroke-linejoin="round"/>
<path d="M730.77 621.34L727.432 611.731" stroke="#171717" stroke-width="3" stroke-linecap="round" stroke-linejoin="round"/>
<path d="M610.611 656.515L619.456 646.131L618.856 646.81" stroke="#171717" stroke-width="3" stroke-linecap="round" stroke-linejoin="round"/>
<path d="M621.348 599.195L613.828 587.917" stroke="#171717" stroke-width="3" stroke-linecap="round" stroke-linejoin="round"/>
<path d="M628.228 552.996L636.148 544.625" stroke="#171717" stroke-width="3" stroke-linecap="round" stroke-linejoin="round"/>
<path d="M574.58 554.9C572.288 553.116 570.635 550.639 569.868 547.838" stroke="#171717" stroke-width="3" stroke-linecap="round" stroke-linejoin="round"/>
<path d="M566.988 602.072L574.923 589.538" stroke="#171717" stroke-width="3" stroke-linecap="round" stroke-linejoin="round"/>
<path d="M535.171 645.612L530.848 634.812" stroke="#171717" stroke-width="3" stroke-linecap="round" stroke-linejoin="round"/>
<path d="M512.379 611.808C515.359 610.147 518.562 608.92 521.889 608.163" stroke="#171717" stroke-width="3" stroke-linecap="round" stroke-linejoin="round"/>
<path d="M805.962 602.789L819.062 593.93" stroke="#171717" stroke-width="3" stroke-linecap="round" stroke-linejoin="round"/>
<path d="M773.421 642.019L774.344 625.673" stroke="#171717" stroke-width="3" stroke-linecap="round" stroke-linejoin="round"/>
<path d="M819.465 644.507L820.053 633.852" stroke="#171717" stroke-width="3" stroke-linecap="round" stroke-linejoin="round"/>
<path d="M763.799 679.04L776.959 680.275" stroke="#171717" stroke-width="3" stroke-linecap="round" stroke-linejoin="round"/>
<path d="M711.127 695.257L713.621 683.976" stroke="#171717" stroke-width="3" stroke-linecap="round" stroke-linejoin="round"/>
<path d="M681.1 720.23L691.128 720.818" stroke="#171717" stroke-width="3" stroke-linecap="round" stroke-linejoin="round"/>
<path d="M890.691 515.12L893.51 501.962" stroke="#171717" stroke-width="3" stroke-linecap="round" stroke-linejoin="round"/>
<path d="M897.27 510.425C893.302 510.76 889.335 509.768 885.991 507.605" stroke="#171717" stroke-width="3" stroke-linecap="round" stroke-linejoin="round"/>
<path d="M437.319 536.019C450.317 531.877 461.717 523.82 469.96 512.95" stroke="#171717" stroke-width="3" stroke-linecap="round" stroke-linejoin="round"/>
<path d="M222.007 449.641L210.231 443.375C210.231 443.375 208.222 450.894 208.222 452.147C208.222 453.4 222.007 449.641 222.007 449.641Z" stroke="#171717" stroke-width="3" stroke-linecap="round" stroke-linejoin="round"/>
<path d="M170.626 526.504L158.512 534.314L176.475 541.907L170.626 526.504Z" stroke="#171717" stroke-width="3" stroke-linecap="round" stroke-linejoin="round"/>
<path d="M150.993 458.524L137.208 465.097L150.993 475.123V458.524Z" stroke="#171717" stroke-width="3" stroke-linecap="round" stroke-linejoin="round"/>
<path d="M249.659 534.858L236.302 539.453L244.983 551.369L249.659 534.858Z" stroke="#171717" stroke-width="3" stroke-linecap="round" stroke-linejoin="round"/>
<path d="M400.471 485.566L386.466 503.244H404.693L400.471 485.566Z" stroke="#171717" stroke-width="3" stroke-linecap="round" stroke-linejoin="round"/>
<path d="M476.406 424.245L492.697 425.203L486.014 439.773L476.406 424.245Z" stroke="#171717" stroke-width="3" stroke-linecap="round" stroke-linejoin="round"/>
<path d="M444.658 443.375L446.329 452.403L432.361 449.641L444.658 443.375Z" stroke="#171717" stroke-width="3" stroke-linecap="round" stroke-linejoin="round"/>
<path d="M324.769 639.216L331.163 652.241H303.883L324.769 639.216Z" stroke="#171717" stroke-width="3" stroke-linecap="round" stroke-linejoin="round"/>
<path d="M227.123 672.147L216.995 648.334L205.298 666.614L227.123 672.147Z" stroke="#171717" stroke-width="3" stroke-linecap="round" stroke-linejoin="round"/>
<path d="M164.36 602.072L153.082 619.183L148.069 602.072H164.36Z" stroke="#171717" stroke-width="3" stroke-linecap="round" stroke-linejoin="round"/>
<path d="M317.523 572.036L307.642 581.226L320.543 587.917L317.523 572.036Z" stroke="#171717" stroke-width="3" stroke-linecap="round" stroke-linejoin="round"/>
<g opacity="0.1">
<path d="M312.814 270.001C297.828 267.035 281.708 267.79 266.481 268.318C254.02 268.75 243.981 274.088 243.039 287.607C242.539 294.795 243.261 302.185 243.396 309.386C243.553 317.712 243.42 326.037 242.996 334.36C242.277 350.556 240.711 366.703 238.303 382.734C237.414 388.384 245.818 390.973 247.072 385.151C253.106 357.138 255.96 328.435 253.709 299.784C253.287 294.414 250.909 285.62 254.644 280.953C257.913 276.865 264.539 276.96 269.256 276.818C283.786 276.38 298.562 277.189 312.815 273.978C314.75 273.542 314.815 270.396 312.815 270.001H312.814Z" fill="#171717"/>
</g>
<g opacity="0.1">
<path d="M230.304 386.276C221.396 389.505 213.004 394.334 204.682 398.853C200.413 401.171 196.124 402.861 192.005 405.488C187.766 408.192 183.531 410.903 179.3 413.62C164.285 423.261 149.125 433.336 137.641 447.206C116.108 473.213 105.091 507.917 103.862 541.378C102.679 573.605 110.701 607.149 129.55 633.644C149.764 662.059 179.95 680.52 212.161 692.595C252.775 707.637 296.18 713.647 339.354 710.206C344.226 709.824 348.401 706.321 348.401 701.159C348.401 696.546 344.253 691.745 339.354 692.112C303.749 694.853 267.946 690.895 233.8 680.443C203.855 671.221 174.314 656.984 153.035 633.396C133.338 611.56 123.444 582.16 122.318 553.06C121.156 523.027 128.149 491.483 144.539 466.079C154.639 450.428 168.968 439.225 184.148 428.802C192.325 423.188 201.131 418.087 208.396 411.345C216.177 404.123 225.609 398.828 233.406 391.608C235.666 389.515 233.324 385.186 230.306 386.281L230.304 386.276Z" fill="#171717"/>
</g>
<g opacity="0.1">
<path d="M654.926 414.787C659.042 425.136 644.958 429.287 637.475 429.562C627.447 429.924 617.675 432.193 609.117 437.644C591.309 448.991 581.554 468.87 575.617 488.439C569.21 509.56 566.823 532.586 555.342 551.833C546.181 567.192 531.154 577.551 516.8 587.62C508.534 593.42 500.238 599.254 492.628 605.906C485.366 612.253 475.596 620.906 473.84 630.794C472.583 637.87 479.882 641.794 485.357 637.494C488.964 634.663 491.398 630.683 494.415 627.233C497.47 623.778 500.754 620.533 504.245 617.52C511.168 611.478 518.759 606.279 526.276 601.02C541.704 590.22 557.237 579.053 567.776 563.12C580.997 543.12 584.246 518.913 590.315 496.243C595.528 476.772 604.198 456.75 623.06 447.038C633.098 441.869 646.18 443.3 655.384 436.362C663.016 430.611 667.001 419.435 660.491 411.549C658.428 409.049 653.715 411.735 654.928 414.787H654.926Z" fill="#171717"/>
</g>
<g opacity="0.1">
<path d="M617.975 482.379C611.454 486.142 610.811 496.469 609.175 503.112C607.149 511.336 605.568 519.68 604.075 528.019C601.139 544.462 598.895 561.058 596.827 577.631C594.765 594.161 593.065 610.732 591.727 627.343C591.047 635.81 590.461 644.282 589.969 652.759C589.743 656.672 589.537 660.587 589.35 664.502C589.136 669.002 588.284 673.927 589.869 678.202C591.818 683.467 600.447 686.268 603.32 679.96C606.714 672.508 605.59 662.832 606.025 654.712C606.463 646.559 606.988 638.412 607.599 630.27C608.849 613.662 610.462 597.087 612.439 580.544C614.373 564.378 616.829 548.304 619.317 532.217C620.617 523.802 622.024 515.399 623.159 506.961C624.059 500.261 627.783 489.741 623.422 483.804C622.871 482.911 621.998 482.265 620.983 481.999C619.968 481.733 618.89 481.867 617.971 482.375L617.975 482.379Z" fill="#171717"/>
</g>
<g opacity="0.1">
<path d="M633.364 693.581C636.45 693.139 639.371 691.605 642.317 690.608C646.131 689.354 650.011 688.31 653.939 687.481C662.448 685.604 671.262 685.769 679.925 685.355C695.918 684.711 711.59 680.665 725.895 673.486C739.886 666.371 752.138 656.262 761.781 643.878C771.425 631.495 778.224 617.14 781.695 601.832C783.707 592.891 784.609 583.735 784.381 574.573C784.114 565.425 783.723 554.346 777.847 546.963C774.587 542.863 766.547 545.034 765.704 550.169C764.471 557.692 767.204 565.362 767.562 572.948C768.713 595.227 761.813 617.178 748.122 634.792C739.179 645.876 727.855 654.804 714.989 660.912C701.026 667.637 686.56 669.259 671.289 670.026C662.073 670.49 652.33 671.194 644.015 675.566C638.239 678.602 630.702 684.488 630.99 691.773C630.998 692.06 631.069 692.341 631.199 692.596C631.33 692.851 631.515 693.074 631.743 693.247C631.971 693.421 632.235 693.541 632.516 693.599C632.796 693.657 633.086 693.651 633.364 693.581V693.581Z" fill="#171717"/>
</g>
<defs>
<linearGradient id="paint0_linear_248_1701" x1="666.33" y1="451.843" x2="666.33" y2="675.449" gradientUnits="userSpaceOnUse">
<stop stop-color="#BA8EFF"/>
<stop offset="1" stop-color="#5936D8"/>
</linearGradient>
<linearGradient id="paint1_linear_248_1701" x1="227.12" y1="395.931" x2="227.12" y2="714.926" gradientUnits="userSpaceOnUse">
<stop stop-color="#BA8EFF"/>
<stop offset="1" stop-color="#5936D8"/>
</linearGradient>
<linearGradient id="paint2_linear_248_1701" x1="670.67" y1="414.781" x2="670.67" y2="436.02" gradientUnits="userSpaceOnUse">
<stop stop-color="#BA8EFF"/>
<stop offset="1" stop-color="#5936D8"/>
</linearGradient>
<linearGradient id="paint3_linear_248_1701" x1="669.459" y1="435.847" x2="669.459" y2="454.035" gradientUnits="userSpaceOnUse">
<stop stop-color="#BA8EFF"/>
<stop offset="1" stop-color="#5936D8"/>
</linearGradient>
<linearGradient id="paint4_linear_248_1701" x1="417.819" y1="345.23" x2="417.819" y2="534.323" gradientUnits="userSpaceOnUse">
<stop stop-color="#BA8EFF"/>
<stop offset="1" stop-color="#5936D8"/>
</linearGradient>
<linearGradient id="paint5_linear_248_1701" x1="311.074" y1="408.471" x2="311.074" y2="625.561" gradientUnits="userSpaceOnUse">
<stop stop-color="#BA8EFF"/>
<stop offset="1" stop-color="#5936D8"/>
</linearGradient>
<linearGradient id="paint6_linear_248_1701" x1="302.241" y1="391.747" x2="302.241" y2="411.127" gradientUnits="userSpaceOnUse">
<stop stop-color="#BA8EFF"/>
<stop offset="1" stop-color="#5936D8"/>
</linearGradient>
<linearGradient id="paint7_linear_248_1701" x1="237.298" y1="388.786" x2="237.298" y2="410.725" gradientUnits="userSpaceOnUse">
<stop stop-color="#BA8EFF"/>
<stop offset="1" stop-color="#5936D8"/>
</linearGradient>
</defs>
</svg>
